<svg enable-background="new 0 0 32 32" height="512" viewBox="0 0 32 32" width="512" xmlns="http://www.w3.org/2000/svg"><g id="_x31_2_angel"><g><g><path d="m25.38 11.5c-.79-.67-1.67-1.26-2.61-1.76 0 0 .16-.31.23-.47.01-.02.02-.04.029-.06.25-.544.434-1.083.587-1.612-1.92.252-4.402.402-7.616.402-3.213 0-5.695-.15-7.614-.402.158.548.351 1.108.614 1.672.07.16.23.47.23.47-4.31 2.28-7.23 6.49-7.23 10.26 0 2.06.42 3.98 1.51 5.57.13.19.27.38.42.56 1.95 2.36 5.64 3.87 12.07 3.87 11 0 14-4.48 14-10 0-1.33-.359-2.71-1.029-4.05-.801-1.62-2.032-3.17-3.591-4.45z" fill="#ffecb3"/><path d="m25.38 11.5c-.79-.67-1.67-1.26-2.61-1.76 0 0 .16-.31.23-.47.01-.02.02-.04.029-.06.25-.544.434-1.083.587-1.612-1.92.252-4.402.402-7.616.402-3.213 0-5.695-.15-7.614-.402.158.548.351 1.108.614 1.672.07.16.23.47.23.47-4.31 2.28-7.23 6.49-7.23 10.26 0 2.06.42 3.98 1.51 5.57 2.16 1.52 5.5 2.43 10.49 2.43 11 0 14-4.48 14-10 0-1.33-.359-2.71-1.029-4.05-.41-.85-.951-1.67-1.591-2.45z" fill="#fff8e1"/><g fill="#ffcdd2"><ellipse cx="22.5" cy="22.5" rx="1.5" ry="1"/><ellipse cx="9.5" cy="22.5" rx="1.5" ry="1"/></g></g><g><path d="m7 20c0 .552.448 1 1 1s1-.448 1-1c0-.551.449-1 1-1s1 .449 1 1c0 .552.448 1 1 1s1-.448 1-1c0-1.654-1.346-3-3-3s-3 1.346-3 3z"/><path d="m21 20c0-.551.449-1 1-1s1 .449 1 1c0 .552.448 1 1 1s1-.448 1-1c0-1.654-1.346-3-3-3s-3 1.346-3 3c0 .552.448 1 1 1s1-.448 1-1z"/><path d="m16 28c2.206 0 4-1.794 4-4 0-.552-.448-1-1-1s-1 .448-1 1c0 1.103-.897 2-2 2s-2-.897-2-2c0-.552-.448-1-1-1s-1 .448-1 1c0 2.206 1.794 4 4 4z"/><path d="m16 7c4.855 0 13-.39 13-3s-8.145-3-13-3-13 .39-13 3 8.145 3 13 3zm0-4c5.269 0 8.731.535 10.272 1-1.541.465-5.003 1-10.272 1s-8.731-.535-10.272-1c1.541-.465 5.003-1 10.272-1z"/><path d="m11.707 12.707 1-1c.391-.391.391-1.023 0-1.414s-1.023-.391-1.414 0l-1 1c-.391.391-.391 1.023 0 1.414.195.195.451.293.707.293s.512-.098.707-.293z"/><path d="m17 12v-1c0-.552-.448-1-1-1s-1 .448-1 1v1c0 .552.448 1 1 1s1-.448 1-1z"/><path d="m20.707 10.293c-.391-.391-1.023-.391-1.414 0s-.391 1.023 0 1.414l1 1c.195.195.451.293.707.293s.512-.098.707-.293c.391-.391.391-1.023 0-1.414z"/><path d="m24.072 9.329c.046-.106.09-.213.132-.323.043-.114.065-.235.065-.356v-.01c0-.552-.448-.995-1-.995-.437 0-.808.283-.944.674-.068.176-.145.345-.242.551-.061.139-.2.406-.202.411-.251.487-.063 1.086.421 1.343 3.944 2.086 6.698 5.941 6.698 9.376 0 3.864-1.348 9-13 9s-13-5.136-13-9c0-3.435 2.754-7.29 6.698-9.376.485-.257.674-.855.421-1.343 0 0-.141-.271-.216-.441-.078-.163-.149-.319-.213-.481-.122-.414-.505-.714-.96-.714-.552 0-1 .453-1 1.005 0 .122.022.243.065.356.042.11.087.218.132.323-4.177 2.53-6.927 6.719-6.927 10.671 0 7.402 4.907 11 15 11 9.953 0 15-3.701 15-11 0-3.952-2.75-8.141-6.928-10.671z"/></g></g></g></svg>