<svg enable-background="new 0 0 32 32" height="512" viewBox="0 0 32 32" width="512" xmlns="http://www.w3.org/2000/svg"><g id="_x31_8_astonished"><g><g><path d="m30 20c0 5.52-3 10-14 10-6.43 0-10.12-1.51-12.07-3.87-.15-.18-.29-.37-.42-.56-1.09-1.59-1.51-3.509-1.51-5.57 0-3.77 2.92-7.98 7.23-10.26 0 0-.16-.311-.23-.471-1.4-3.009-1.32-6.009.18-6.708.63-.301 1.42-.141 2.21.369 0 .01.01.01.02.021.69.44 1.38 1.13 2 2.01.52-1.772 1.49-2.961 2.59-2.961.09 0 .17.01.25.02.28.051.54.17.79.36.649.47 1.2 1.399 1.55 2.58 1.051-1.479 2.301-2.44 3.35-2.54.32-.029.61.01.881.141 1.49.699 1.58 3.66.209 6.649-.01.02-.02.04-.03.06-.07.16-.23.471-.23.471.94.5 1.82 1.09 2.61 1.76 1.56 1.279 2.79 2.83 3.591 4.45.67 1.339 1.029 2.719 1.029 4.049z" fill="#ffecb3"/><path d="m28 18c0 5.52-3 10-14 10-4.99 0-8.33-.91-10.49-2.43-1.09-1.59-1.51-3.509-1.51-5.57 0-3.77 2.92-7.98 7.23-10.26 0 0-.16-.311-.23-.471-1.4-3.009-1.32-6.009.18-6.708.63-.301 1.42-.141 2.21.369 0 .01.01.01.02.021.69.44 1.38 1.13 2 2.01.52-1.772 1.49-2.961 2.59-2.961.09 0 .17.01.25.02.28.051.54.17.79.36.649.47 1.2 1.399 1.55 2.58 1.051-1.479 2.301-2.44 3.35-2.54.32-.029.61.01.881.141 1.49.699 1.58 3.66.209 6.649-.01.02-.02.04-.03.06-.07.16-.23.471-.23.471.94.5 1.82 1.09 2.61 1.76.64.779 1.181 1.6 1.591 2.45.67 1.339 1.029 2.719 1.029 4.049z" fill="#fff8e1"/><ellipse cx="22.5" cy="22.5" fill="#ffcdd2" rx="1.5" ry="1"/><ellipse cx="9.5" cy="22.5" fill="#ffcdd2" rx="1.5" ry="1"/><path d="m18 24c0 .51-.12.98-.33 1.37-.36.68-.97 1.13-1.67 1.13s-1.31-.45-1.67-1.13c-.21-.39-.33-.86-.33-1.37 0-1.38.9-2.5 2-2.5s2 1.12 2 2.5z" fill="#ef5350"/><path d="m17.67 25.37c-.36.68-.97 1.13-1.67 1.13s-1.31-.45-1.67-1.13c.51-.24 1.07-.37 1.67-.37s1.16.13 1.67.37z" fill="#ef9a9a"/><g fill="#fff"><circle cx="10" cy="19" r="2"/><circle cx="22" cy="19" r="2"/></g></g><g><path d="m10 16c-1.654 0-3 1.346-3 3s1.346 3 3 3 3-1.346 3-3-1.346-3-3-3zm0 4c-.551 0-1-.448-1-1s.449-1 1-1 1 .448 1 1-.449 1-1 1z"/><path d="m22 16c-1.654 0-3 1.346-3 3s1.346 3 3 3 3-1.346 3-3-1.346-3-3-3zm0 4c-.552 0-1-.448-1-1s.448-1 1-1 1 .448 1 1-.448 1-1 1z"/><path d="m11 13c.256 0 .512-.098.707-.293l1-1c.391-.391.391-1.023 0-1.414s-1.023-.391-1.414 0l-1 1c-.391.391-.391 1.023 0 1.414.195.195.451.293.707.293z"/><path d="m16 13c.552 0 1-.447 1-1v-1c0-.553-.448-1-1-1s-1 .447-1 1v1c0 .553.448 1 1 1z"/><path d="m20.293 12.707c.195.195.451.293.707.293s.512-.098.707-.293c.391-.391.391-1.023 0-1.414l-1-1c-.391-.391-1.023-.391-1.414 0s-.391 1.023 0 1.414z"/><path d="m16 20.5c-1.654 0-3 1.57-3 3.5s1.346 3.5 3 3.5 3-1.57 3-3.5-1.346-3.5-3-3.5zm0 5c-.533 0-1-.701-1-1.5s.467-1.5 1-1.5 1 .701 1 1.5-.467 1.5-1 1.5z"/><path d="m24.069 9.328c1.501-3.486 1.167-6.744-.826-7.674-1.287-.599-2.896-.039-4.355 1.412-.717-1.287-1.73-2.066-2.888-2.066-1.14 0-2.159.752-2.887 2.068-1.46-1.453-3.07-2.017-4.355-1.414-1.998.931-2.329 4.2-.828 7.674-4.18 2.529-6.93 6.719-6.93 10.672 0 7.402 4.907 11 15 11 9.953 0 15-3.701 15-11 0-3.953-2.751-8.143-6.931-10.672zm-8.069 19.672c-11.652 0-13-5.137-13-9 0-3.435 2.754-7.29 6.697-9.376.486-.257.674-.854.421-1.342 0 0-.141-.272-.212-.435-1.288-2.77-1.04-5.036-.303-5.38.524-.242 1.648.344 2.721 1.718-.209.88-.324 1.84-.324 2.815 0 .553.448 1 1 1s1-.447 1-1c0-.977.128-1.931.37-2.759.431-1.471 1.147-2.241 1.63-2.241.815 0 2 1.948 2 5 0 .553.447 1 1 1s1-.447 1-1c0-1.017-.113-1.969-.317-2.824 1.069-1.368 2.188-1.952 2.715-1.709.737.344.985 2.61-.313 5.4-.062.141-.201.411-.203.415-.251.487-.063 1.086.421 1.342 3.943 2.086 6.697 5.941 6.697 9.376 0 3.863-1.348 9-13 9z"/></g></g></g></svg>