<svg enable-background="new 0 0 32 32" height="512" viewBox="0 0 32 32" width="512" xmlns="http://www.w3.org/2000/svg"><g id="_x32_1_crying"><g><g><path d="m30 20c0 5.52-3 10-14 10-6.43 0-10.12-1.51-12.07-3.87-.15-.18-.29-.37-.42-.56-1.09-1.59-1.51-3.509-1.51-5.57 0-3.77 2.92-7.98 7.23-10.26 0 0-.16-.311-.23-.471-1.4-3.009-1.32-6.009.18-6.708.63-.301 1.42-.141 2.21.369 0 .01.01.01.02.021.69.44 1.38 1.13 2 2.01.52-1.772 1.49-2.961 2.59-2.961.09 0 .17.01.25.02.28.051.54.17.79.36.65.47 1.2 1.399 1.55 2.58 1.05-1.479 2.3-2.44 3.35-2.54.32-.029.61.01.88.141 1.49.699 1.58 3.66.21 6.649-.01.02-.02.04-.03.06-.07.16-.23.471-.23.471.94.5 1.82 1.09 2.61 1.76 1.56 1.279 2.79 2.83 3.59 4.45.67 1.339 1.03 2.719 1.03 4.049z" fill="#ffecb3"/><path d="m28 18c0 5.52-3 10-14 10-4.99 0-8.33-.91-10.49-2.43-1.09-1.59-1.51-3.509-1.51-5.57 0-3.77 2.92-7.98 7.23-10.26 0 0-.16-.311-.23-.471-1.4-3.009-1.32-6.009.18-6.708.63-.301 1.42-.141 2.21.369 0 .01.01.01.02.021.69.44 1.38 1.13 2 2.01.52-1.772 1.49-2.961 2.59-2.961.09 0 .17.01.25.02.28.051.54.17.79.36.65.47 1.2 1.399 1.55 2.58 1.05-1.479 2.3-2.44 3.35-2.54.32-.029.61.01.88.141 1.49.699 1.58 3.66.21 6.649-.01.02-.02.04-.03.06-.07.16-.23.471-.23.471.94.5 1.82 1.09 2.61 1.76.64.779 1.18 1.6 1.59 2.45.67 1.339 1.03 2.719 1.03 4.049z" fill="#fff8e1"/><ellipse cx="22.5" cy="22.5" fill="#ffcdd2" rx="1.5" ry="1"/><ellipse cx="9.5" cy="22.5" fill="#ffcdd2" rx="1.5" ry="1"/><path d="m10 28c0 1.104-.896 2-2 2-1.105-.001-2-.896-2-2s2-4 2-4 2 2.896 2 4z" fill="#b3e5fc"/></g><g><circle cx="10" cy="19" r="2"/><circle cx="22" cy="19" r="2"/><path d="m16 23c-2.206 0-4 1.794-4 4 0 .553.448 1 1 1s1-.447 1-1c0-1.103.897-2 2-2s2 .897 2 2c0 .553.448 1 1 1s1-.447 1-1c0-2.206-1.794-4-4-4z"/><path d="m11 13c.256 0 .512-.098.707-.293l1-1c.391-.391.391-1.023 0-1.414s-1.023-.391-1.414 0l-1 1c-.391.391-.391 1.023 0 1.414.195.195.451.293.707.293z"/><path d="m16 13c.552 0 1-.447 1-1v-1c0-.553-.448-1-1-1s-1 .447-1 1v1c0 .553.448 1 1 1z"/><path d="m20.293 12.707c.195.195.451.293.707.293s.512-.098.707-.293c.391-.391.391-1.023 0-1.414l-1-1c-.391-.391-1.023-.391-1.414 0s-.391 1.023 0 1.414z"/><path d="m9.707 14.293c-.391-.391-1.023-.391-1.414 0l-2 2c-.391.391-.391 1.023 0 1.414.195.195.451.293.707.293s.512-.098.707-.293l2-2c.391-.391.391-1.023 0-1.414z"/><path d="m23.707 14.293c-.391-.391-1.023-.391-1.414 0s-.391 1.023 0 1.414l2 2c.195.195.451.293.707.293s.512-.098.707-.293c.391-.391.391-1.023 0-1.414z"/><path d="m24.069 9.327c1.5-3.484 1.167-6.743-.827-7.674-1.284-.599-2.895-.037-4.354 1.414-.717-1.288-1.729-2.067-2.888-2.067-1.141 0-2.159.752-2.888 2.068-1.46-1.452-3.071-2.014-4.355-1.415-1.997.933-2.327 4.202-.827 7.675-4.18 2.529-6.93 6.719-6.93 10.672 0 3.786 1.372 6.615 4.045 8.444.217 1.442 1.453 2.554 2.954 2.556h.001c.678 0 1.296-.234 1.799-.614 1.757.401 3.828.614 6.201.614 9.953 0 15-3.701 15-11 0-3.953-2.75-8.144-6.931-10.673zm-16.069 19.673c-.551-.001-1-.449-1-.999.008-.306.424-1.177 1-2.147.576.97.992 1.841 1 2.146 0 .551-.449 1-1 1zm8 0c-1.909 0-3.599-.142-5.06-.413.039-.191.06-.386.06-.587 0-1.278-1.523-3.62-2.177-4.568-.187-.271-.494-.432-.823-.432s-.636.161-.823.432c-.415.6-1.174 1.758-1.678 2.851-1.671-1.448-2.499-3.511-2.499-6.283 0-3.435 2.754-7.29 6.697-9.376.486-.257.674-.854.421-1.342 0 0-.141-.272-.212-.435-1.288-2.77-1.04-5.037-.303-5.381.524-.243 1.649.345 2.722 1.719-.21.88-.325 1.84-.325 2.815 0 .553.448 1 1 1s1-.447 1-1c0-.977.128-1.931.37-2.759.431-1.471 1.147-2.241 1.63-2.241.815 0 2 1.948 2 5 0 .553.448 1 1 1s1-.447 1-1c0-1.017-.113-1.969-.317-2.825 1.07-1.366 2.188-1.952 2.714-1.709.737.344.985 2.611-.313 5.404-.061.139-.2.407-.202.412-.251.487-.063 1.086.421 1.342 3.943 2.086 6.697 5.941 6.697 9.376 0 3.863-1.348 9-13 9z"/><g fill="#fff"><circle cx="10.5" cy="18.5" r=".5"/><circle cx="22.5" cy="18.5" r=".5"/></g></g></g></g></svg>