<svg enable-background="new 0 0 32 32" height="512" viewBox="0 0 32 32" width="512" xmlns="http://www.w3.org/2000/svg"><g id="_x32_2_crying"><g><g><path d="m30 20c0 5.52-3 10-14 10-6.43 0-10.12-1.51-12.07-3.87-.15-.18-.29-.37-.42-.56-1.09-1.59-1.51-3.509-1.51-5.57 0-3.77 2.92-7.98 7.23-10.26 0 0-.16-.311-.23-.471-1.4-3.009-1.32-6.009.18-6.708.63-.301 1.42-.141 2.21.369 0 .01.01.01.02.021.69.44 1.38 1.13 2 2.01.52-1.772 1.49-2.961 2.59-2.961.09 0 .17.01.25.02.28.051.54.17.79.36.65.47 1.2 1.399 1.55 2.58 1.05-1.479 2.3-2.44 3.35-2.54.32-.029.61.01.88.141 1.49.699 1.58 3.66.21 6.649-.01.02-.02.04-.03.06-.07.16-.23.471-.23.471.94.5 1.82 1.09 2.61 1.76 1.56 1.279 2.79 2.83 3.59 4.45.67 1.339 1.03 2.719 1.03 4.049z" fill="#ffecb3"/><path d="m28 18c0 5.52-3 10-14 10-4.99 0-8.33-.91-10.49-2.43-1.09-1.59-1.51-3.509-1.51-5.57 0-3.77 2.92-7.98 7.23-10.26 0 0-.16-.311-.23-.471-1.4-3.009-1.32-6.009.18-6.708.63-.301 1.42-.141 2.21.369 0 .01.01.01.02.021.69.44 1.38 1.13 2 2.01.52-1.772 1.49-2.961 2.59-2.961.09 0 .17.01.25.02.28.051.54.17.79.36.65.47 1.2 1.399 1.55 2.58 1.05-1.479 2.3-2.44 3.35-2.54.32-.029.61.01.88.141 1.49.699 1.58 3.66.21 6.649-.01.02-.02.04-.03.06-.07.16-.23.471-.23.471.94.5 1.82 1.09 2.61 1.76.64.779 1.18 1.6 1.59 2.45.67 1.339 1.03 2.719 1.03 4.049z" fill="#fff8e1"/><g><path d="m25 19v9.41c-1.1.53-2.42.939-4 1.2v-10.61z" fill="#81d4fa"/><path d="m11 19v10.62c-1.58-.271-2.9-.67-4-1.19v-9.43z" fill="#81d4fa"/><g fill="#b3e5fc"><path d="m7 19h4v8.87c-1.52-.13-2.85-.37-4-.7z"/><path d="m25 19v6.17c-1.01.83-2.32 1.51-4 1.99v-8.16z"/></g></g></g><g><path d="m18 24h-4c-.552 0-1 .447-1 1s.448 1 1 1h4c.552 0 1-.447 1-1s-.448-1-1-1z"/><path d="m12.707 10.293c-.391-.391-1.023-.391-1.414 0l-1 1c-.391.391-.391 1.023 0 1.414.195.195.451.293.707.293s.512-.098.707-.293l1-1c.391-.391.391-1.023 0-1.414z"/><path d="m16 13c.552 0 1-.447 1-1v-1c0-.553-.448-1-1-1s-1 .447-1 1v1c0 .553.448 1 1 1z"/><path d="m20.707 10.293c-.391-.391-1.023-.391-1.414 0s-.391 1.023 0 1.414l1 1c.195.195.451.293.707.293s.512-.098.707-.293c.391-.391.391-1.023 0-1.414z"/><path d="m24.069 9.327c1.5-3.484 1.167-6.743-.827-7.674-1.285-.599-2.895-.037-4.354 1.414-.717-1.288-1.729-2.067-2.888-2.067-1.141 0-2.159.752-2.888 2.068-1.46-1.452-3.071-2.014-4.355-1.415-1.997.933-2.327 4.202-.827 7.675-4.18 2.529-6.93 6.719-6.93 10.672 0 4.457 1.875 7.599 5.572 9.334 1.21.572 2.604.988 4.257 1.271 1.508.262 3.248.395 5.171.395 1.944 0 3.686-.137 5.163-.403 1.618-.267 3.055-.699 4.263-1.281 3.699-1.738 5.574-4.872 5.574-9.316 0-3.953-2.75-8.144-6.931-10.673zm-14.069 19.068c-.73-.173-1.396-.384-2-.627v-7.768h2zm14-.642c-.608.25-1.273.463-2 .635v-8.388h2zm2-1.1v-7.653c0-.553-.448-1-1-1h-4c-.552 0-1 .447-1 1v9.751c-1.187.162-2.523.249-4 .249-1.464 0-2.8-.085-4-.244v-9.756c0-.553-.448-1-1-1h-4c-.552 0-1 .447-1 1v7.674c-2.026-1.459-3-3.611-3-6.674 0-3.435 2.754-7.29 6.697-9.376.486-.257.674-.854.421-1.342 0 0-.141-.272-.212-.435-1.288-2.77-1.04-5.037-.303-5.381.523-.243 1.648.345 2.722 1.719-.21.88-.325 1.84-.325 2.815 0 .553.448 1 1 1s1-.447 1-1c0-.977.128-1.931.37-2.759.431-1.471 1.147-2.241 1.63-2.241.815 0 2 1.948 2 5 0 .553.448 1 1 1s1-.447 1-1c0-1.017-.113-1.969-.317-2.825 1.07-1.366 2.188-1.952 2.714-1.709.737.344.985 2.611-.313 5.404-.061.139-.2.407-.202.412-.251.487-.063 1.086.421 1.342 3.943 2.086 6.697 5.941 6.697 9.376 0 3.049-.972 5.193-3 6.653z"/></g></g></g></svg>