<svg enable-background="new 0 0 32 32" height="512" viewBox="0 0 32 32" width="512" xmlns="http://www.w3.org/2000/svg"><g id="_x31_4_devil"><g><g><path d="m13.41 4.96c.52-1.77 2.59-2.96 2.59-2.96s1.4 1.26 2.29 3.11l.3-.15c1.351-1.92 4.23-2.4 4.23-2.4s1.58 3.7.18 6.71c-.07.16-.23.47-.23.47 4.31 2.28 7.23 6.49 7.23 10.26 0 5.52-3 10-14 10-11.06 0-14-4.48-14-10 0-3.77 2.92-7.98 7.23-10.26 0 0-.16-.31-.23-.47-1.4-3.01.18-6.71.18-6.71s2.88.48 4.23 2.4z" fill="#ffab91"/><path d="m25.37 11.49c-.79-.66-1.66-1.25-2.601-1.75 0 0 .16-.31.23-.47.01-.02.02-.04.03-.06 1.35-3-.21-6.65-.21-6.65s-.59.1-1.36.38v.01c-.93.34-2.13.96-2.87 2.01l-.3.15c-.47-.97-1.08-1.78-1.55-2.33-.429-.49-.739-.78-.739-.78s-.09.05-.24.15c-.56.37-1.939 1.41-2.35 2.81-1.351-1.92-4.23-2.4-4.23-2.4s-1.58 3.7-.18 6.71c.07.16.23.47.23.47-4.31 2.28-7.23 6.49-7.23 10.26 0 2.06.41 3.98 1.5 5.57 2.16 1.51 5.5 2.43 10.5 2.43 11 0 14-4.48 14-10 0-2.18-.97-4.5-2.63-6.51z" fill="#ffccbc"/><g fill="#ffab91"><ellipse cx="22.5" cy="22.5" rx="1.5" ry="1"/><ellipse cx="9.5" cy="22.5" rx="1.5" ry="1"/></g></g><g><g><circle cx="10" cy="19" r="2"/></g><g><circle cx="22" cy="19" r="2"/></g><circle cx="22.5" cy="18.5" fill="#fff" r=".5"/><circle cx="9.5" cy="18.5" fill="#fff" r=".5"/><g><path d="m12 20c-.256 0-.512-.098-.707-.293l-3-3c-.391-.391-.391-1.023 0-1.414s1.023-.391 1.414 0l3 3c.391.391.391 1.023 0 1.414-.195.195-.451.293-.707.293z"/></g><g><path d="m11 13c-.256 0-.512-.098-.707-.293-.391-.391-.391-1.023 0-1.414l1-1c.391-.391 1.023-.391 1.414 0s.391 1.023 0 1.414l-1 1c-.195.195-.451.293-.707.293z"/></g><g><path d="m16 13c-.553 0-1-.448-1-1v-1c0-.552.447-1 1-1s1 .448 1 1v1c0 .552-.447 1-1 1z"/></g><g><path d="m21 13c-.256 0-.512-.098-.707-.293l-1-1c-.391-.391-.391-1.023 0-1.414s1.023-.391 1.414 0l1 1c.391.391.391 1.023 0 1.414-.195.195-.451.293-.707.293z"/></g><g><path d="m16 28c-2.206 0-4-1.794-4-4 0-.552.447-1 1-1s1 .448 1 1c0 1.103.897 2 2 2s2-.897 2-2c0-.552.447-1 1-1s1 .448 1 1c0 2.206-1.794 4-4 4z"/></g><g><path d="m19 9c-.553 0-1-.448-1-1 0-.79-.205-1.616-.61-2.456-.459-.955-1.079-1.745-1.518-2.24-.57.453-1.273 1.158-1.502 1.937-.242.829-.37 1.783-.37 2.759 0 .552-.447 1-1 1s-1-.448-1-1c0-1.163.155-2.311.45-3.32.615-2.096 2.804-3.404 3.052-3.547.374-.215.844-.166 1.167.124.063.057 1.559 1.415 2.522 3.42.537 1.112.809 2.23.809 3.323 0 .552-.447 1-1 1z"/></g><g><path d="m16 31c-10.094 0-15-3.598-15-11 0-3.954 2.753-8.146 6.935-10.675-1.3-3.277.255-6.995.325-7.158.18-.423.626-.674 1.084-.593.135.022 3.312.574 4.885 2.811l-1.637 1.15c-.69-.982-1.94-1.518-2.765-1.779-.332 1.144-.754 3.301.079 5.092.07.16.211.429.213.433.252.487.063 1.086-.421 1.343-3.944 2.086-6.698 5.941-6.698 9.376 0 3.864 1.348 9 13 9s13-5.136 13-9c0-3.435-2.754-7.29-6.698-9.376-.484-.256-.673-.855-.421-1.343.002-.004.143-.273.203-.413.84-1.805.421-3.966.089-5.112-.824.261-2.073.796-2.765 1.779l-1.637-1.15c1.573-2.237 4.75-2.789 4.885-2.811.457-.081.903.17 1.084.594.068.162 1.619 3.867.324 7.157 4.183 2.529 6.936 6.72 6.936 10.675 0 7.299-5.047 11-15 11z"/></g><g><path d="m20 20c-.256 0-.512-.098-.707-.293-.391-.391-.391-1.023 0-1.414l3-3c.391-.391 1.023-.391 1.414 0s.391 1.023 0 1.414l-3 3c-.195.195-.451.293-.707.293z"/></g></g></g></g></svg>