<svg enable-background="new 0 0 32 32" height="512" viewBox="0 0 32 32" width="512" xmlns="http://www.w3.org/2000/svg"><g id="_x31_0_expressionless"><g><g><path d="m30 20c0 5.52-3 10-14 10-6.43 0-10.12-1.51-12.07-3.87-.15-.18-.289-.37-.42-.56-1.09-1.59-1.51-3.51-1.51-5.57 0-3.77 2.92-7.98 7.23-10.26 0 0-.16-.31-.23-.47-1.4-3.01-1.32-6.01.18-6.71.631-.3 1.42-.14 2.211.37 0 .01.01.01.02.02.689.44 1.38 1.13 2 2.01.519-1.77 1.489-2.96 2.589-2.96.09 0 .17.01.25.02.279.05.54.17.79.36.649.47 1.2 1.4 1.55 2.58 1.051-1.48 2.301-2.44 3.35-2.54.32-.03.61.01.881.14 1.49.7 1.58 3.66.209 6.65-.01.02-.02.04-.03.06-.07.16-.23.47-.23.47.94.5 1.82 1.09 2.61 1.76 1.56 1.28 2.79 2.83 3.591 4.45.67 1.34 1.029 2.72 1.029 4.05z" fill="#ffecb3"/><path d="m28 18c0 5.52-3 10-14 10-4.99 0-8.33-.91-10.49-2.43-1.09-1.59-1.51-3.51-1.51-5.57 0-3.77 2.92-7.98 7.23-10.26 0 0-.16-.31-.23-.47-1.4-3.01-1.32-6.01.18-6.71.631-.3 1.42-.14 2.211.37 0 .01.01.01.02.02.689.44 1.38 1.13 2 2.01.519-1.77 1.489-2.96 2.589-2.96.09 0 .17.01.25.02.279.05.54.17.79.36.649.47 1.2 1.4 1.55 2.58 1.051-1.48 2.301-2.44 3.35-2.54.32-.03.61.01.881.14 1.49.7 1.58 3.66.209 6.65-.01.02-.02.04-.03.06-.07.16-.23.47-.23.47.94.5 1.82 1.09 2.61 1.76.64.78 1.181 1.6 1.591 2.45.67 1.34 1.029 2.72 1.029 4.05z" fill="#fff8e1"/><g fill="#ffcdd2"><ellipse cx="22.5" cy="22.5" rx="1.5" ry="1"/><ellipse cx="9.5" cy="22.5" rx="1.5" ry="1"/></g></g><g><path d="m19 24h-6c-.553 0-1 .448-1 1s.447 1 1 1h6c.553 0 1-.448 1-1s-.447-1-1-1z"/><path d="m13 19c0-.552-.447-1-1-1h-3c-.553 0-1 .448-1 1s.447 1 1 1h3c.553 0 1-.448 1-1z"/><path d="m23 18h-3c-.553 0-1 .448-1 1s.447 1 1 1h3c.553 0 1-.448 1-1s-.447-1-1-1z"/><path d="m11 13c.256 0 .512-.098.707-.293l1-1c.391-.391.391-1.023 0-1.414s-1.023-.391-1.414 0l-1 1c-.391.391-.391 1.023 0 1.414.195.195.451.293.707.293z"/><path d="m16 13c.553 0 1-.448 1-1v-1c0-.552-.447-1-1-1s-1 .448-1 1v1c0 .552.447 1 1 1z"/><path d="m20.293 12.707c.195.195.451.293.707.293s.512-.098.707-.293c.391-.391.391-1.023 0-1.414l-1-1c-.391-.391-1.023-.391-1.414 0s-.391 1.023 0 1.414z"/><path d="m24.069 9.328c1.5-3.485 1.167-6.744-.826-7.674-1.287-.601-2.896-.04-4.355 1.413-.717-1.288-1.73-2.067-2.888-2.067-1.141 0-2.158.751-2.887 2.067-1.458-1.452-3.067-2.013-4.356-1.414-1.996.932-2.327 4.201-.827 7.675-4.18 2.53-6.93 6.719-6.93 10.672 0 7.402 4.906 11 15 11 9.953 0 15-3.701 15-11 0-3.953-2.751-8.143-6.931-10.672zm-8.069 19.672c-11.652 0-13-5.136-13-9 0-3.435 2.754-7.29 6.698-9.376.484-.256.673-.855.421-1.343-.002-.004-.143-.273-.213-.433-1.288-2.77-1.041-5.038-.303-5.382.523-.248 1.649.344 2.722 1.719-.21.881-.325 1.84-.325 2.815 0 .552.447 1 1 1s1-.448 1-1c0-.976.128-1.93.37-2.758.432-1.472 1.147-2.242 1.63-2.242.815 0 2 1.948 2 5 0 .552.447 1 1 1s1-.448 1-1c0-1.017-.113-1.969-.317-2.825 1.069-1.368 2.189-1.957 2.715-1.709.737.344.984 2.611-.313 5.402-.061.14-.201.409-.203.413-.252.487-.063 1.086.421 1.343 3.943 2.086 6.697 5.941 6.697 9.376 0 3.864-1.348 9-13 9z"/></g></g></g></svg>