<svg enable-background="new 0 0 32 32" height="512" viewBox="0 0 32 32" width="512" xmlns="http://www.w3.org/2000/svg"><g id="_x32_7_grinning"><g><g><path d="m30 20c0 5.52-3 10-14 10-6.43 0-10.12-1.51-12.07-3.87-.15-.18-.29-.37-.42-.56-1.09-1.59-1.51-3.509-1.51-5.57 0-3.77 2.92-7.98 7.23-10.26 0 0-.16-.311-.23-.471-1.4-3.009-1.32-6.009.18-6.708.63-.301 1.42-.141 2.21.369 0 .01.01.01.02.021.69.44 1.38 1.13 2 2.01.52-1.772 1.49-2.961 2.59-2.961.09 0 .17.01.25.02.28.051.54.17.79.36.65.47 1.2 1.399 1.55 2.58 1.05-1.479 2.3-2.44 3.35-2.54.32-.029.61.01.88.141 1.49.699 1.58 3.66.21 6.649-.01.02-.02.04-.03.06-.07.16-.23.471-.23.471.94.5 1.82 1.09 2.61 1.76 1.56 1.279 2.79 2.83 3.59 4.45.67 1.339 1.03 2.719 1.03 4.049z" fill="#ffecb3"/><path d="m28 18c0 5.52-3 10-14 10-4.99 0-8.33-.91-10.49-2.43-1.09-1.59-1.51-3.509-1.51-5.57 0-3.77 2.92-7.98 7.23-10.26 0 0-.16-.311-.23-.471-1.4-3.009-1.32-6.009.18-6.708.63-.301 1.42-.141 2.21.369 0 .01.01.01.02.021.69.44 1.38 1.13 2 2.01.52-1.772 1.49-2.961 2.59-2.961.09 0 .17.01.25.02.28.051.54.17.79.36.65.47 1.2 1.399 1.55 2.58 1.05-1.479 2.3-2.44 3.35-2.54.32-.029.61.01.88.141 1.49.699 1.58 3.66.21 6.649-.01.02-.02.04-.03.06-.07.16-.23.471-.23.471.94.5 1.82 1.09 2.61 1.76.64.779 1.18 1.6 1.59 2.45.67 1.339 1.03 2.719 1.03 4.049z" fill="#fff8e1"/><ellipse cx="22.5" cy="22.5" fill="#ffcdd2" rx="1.5" ry="1"/><ellipse cx="9.5" cy="22.5" fill="#ffcdd2" rx="1.5" ry="1"/><path d="m30 13c0 1.104-.896 2-2 2-1.104-.001-1.999-.896-2-2 0-1.104 2-4 2-4s2 2.896 2 4z" fill="#b3e5fc"/></g><g><path d="m13 20c0-1.654-1.346-3-3-3s-3 1.346-3 3c0 .553.448 1 1 1s1-.447 1-1c0-.552.449-1 1-1s1 .448 1 1c0 .553.448 1 1 1s1-.447 1-1z"/><path d="m22 17c-1.654 0-3 1.346-3 3 0 .553.448 1 1 1s1-.447 1-1c0-.552.449-1 1-1s1 .448 1 1c0 .553.448 1 1 1s1-.447 1-1c0-1.654-1.346-3-3-3z"/><path d="m19 23c-.552 0-1 .447-1 1 0 1.103-.897 2-2 2s-2-.897-2-2c0-.553-.448-1-1-1s-1 .447-1 1c0 2.206 1.794 4 4 4s4-1.794 4-4c0-.553-.448-1-1-1z"/><path d="m11 13c.256 0 .512-.098.707-.293l1-1c.391-.391.391-1.023 0-1.414s-1.023-.391-1.414 0l-1 1c-.391.391-.391 1.023 0 1.414.195.195.451.293.707.293z"/><path d="m16 13c.552 0 1-.447 1-1v-1c0-.553-.448-1-1-1s-1 .447-1 1v1c0 .553.448 1 1 1z"/><path d="m20.293 12.707c.195.195.451.293.707.293s.512-.098.707-.293c.391-.391.391-1.023 0-1.414l-1-1c-.391-.391-1.023-.391-1.414 0s-.391 1.023 0 1.414z"/><path d="m31 13c0-1.278-1.523-3.62-2.177-4.568-.187-.271-.494-.432-.823-.432s-.636.161-.823.432c-.328.475-.874 1.3-1.336 2.165-.563-.458-1.147-.891-1.771-1.27 1.5-3.484 1.166-6.743-.828-7.674-1.285-.599-2.895-.037-4.354 1.414-.717-1.288-1.729-2.067-2.888-2.067-1.14 0-2.158.752-2.887 2.068-1.46-1.453-3.072-2.015-4.355-1.415-1.998.933-2.328 4.202-.828 7.675-4.18 2.529-6.93 6.719-6.93 10.672 0 7.402 4.907 11 15 11 9.953 0 15-3.701 15-11 0-1.504-.429-3.078-1.208-4.609.729-.548 1.208-1.412 1.208-2.391zm-3-2.146c.576.97.992 1.841 1 2.146 0 .551-.449 1-1 1-.551-.001-1-.449-1-.999.008-.306.424-1.177 1-2.147zm-12 18.146c-11.652 0-13-5.137-13-9 0-3.435 2.754-7.29 6.697-9.376.486-.257.674-.854.421-1.342 0 0-.141-.272-.212-.435-1.288-2.77-1.04-5.037-.303-5.381.522-.241 1.648.345 2.722 1.719-.21.879-.325 1.838-.325 2.815 0 .553.448 1 1 1s1-.447 1-1c0-.978.128-1.932.37-2.758.432-1.471 1.147-2.242 1.63-2.242.815 0 2 1.948 2 5 0 .553.448 1 1 1s1-.447 1-1c0-1.017-.113-1.969-.317-2.825 1.07-1.366 2.188-1.952 2.714-1.709.737.344.985 2.611-.313 5.404-.061.139-.2.407-.202.412-.251.487-.063 1.087.422 1.343 1 .527 1.921 1.176 2.755 1.919-.034.161-.059.317-.059.456 0 1.601 1.265 2.9 2.845 2.984.744 1.351 1.155 2.728 1.155 4.016 0 3.863-1.348 9-13 9z"/><path d="m7.707 17.707 2-2c.391-.391.391-1.023 0-1.414s-1.023-.391-1.414 0l-2 2c-.391.391-.391 1.023 0 1.414.195.195.451.293.707.293s.512-.098.707-.293z"/><path d="m23.707 14.293c-.391-.391-1.023-.391-1.414 0s-.391 1.023 0 1.414l2 2c.195.195.451.293.707.293s.512-.098.707-.293c.391-.391.391-1.023 0-1.414z"/></g></g></g></svg>