<svg enable-background="new 0 0 32 32" height="512" viewBox="0 0 32 32" width="512" xmlns="http://www.w3.org/2000/svg"><g id="_x31_6_in_love"><g><g><path d="m30 20c0 5.52-3 10-14 10-6.43 0-10.12-1.51-12.07-3.87-.15-.18-.29-.37-.42-.56-1.09-1.59-1.51-3.509-1.51-5.57 0-3.77 2.92-7.98 7.23-10.26 0 0-.16-.311-.23-.471-1.4-3.009-1.32-6.009.18-6.708.63-.301 1.42-.141 2.21.369 0 .01.01.01.02.021.69.44 1.38 1.13 2 2.01.52-1.772 1.49-2.961 2.59-2.961.09 0 .17.01.25.02.28.051.54.17.79.36.649.47 1.2 1.399 1.55 2.58 1.051-1.479 2.301-2.44 3.35-2.54.32-.029.61.01.881.141 1.49.699 1.58 3.66.209 6.649-.01.02-.02.04-.03.06-.07.16-.23.471-.23.471.94.5 1.82 1.09 2.61 1.76 1.56 1.279 2.79 2.83 3.591 4.45.67 1.339 1.029 2.719 1.029 4.049z" fill="#ffecb3"/><path d="m28 18c0 5.52-3 10-14 10-4.99 0-8.33-.91-10.49-2.43-1.09-1.59-1.51-3.509-1.51-5.57 0-3.77 2.92-7.98 7.23-10.26 0 0-.16-.311-.23-.471-1.4-3.009-1.32-6.009.18-6.708.63-.301 1.42-.141 2.21.369 0 .01.01.01.02.021.69.44 1.38 1.13 2 2.01.52-1.772 1.49-2.961 2.59-2.961.09 0 .17.01.25.02.28.051.54.17.79.36.649.47 1.2 1.399 1.55 2.58 1.051-1.479 2.301-2.44 3.35-2.54.32-.029.61.01.881.141 1.49.699 1.58 3.66.209 6.649-.01.02-.02.04-.03.06-.07.16-.23.471-.23.471.94.5 1.82 1.09 2.61 1.76.64.779 1.181 1.6 1.591 2.45.67 1.339 1.029 2.719 1.029 4.049z" fill="#fff8e1"/><ellipse cx="22.5" cy="22.5" fill="#ffcdd2" rx="1.5" ry="1"/><ellipse cx="9.5" cy="22.5" fill="#ffcdd2" rx="1.5" ry="1"/><path d="m20 23c0 .939-.33 1.811-.88 2.5-.14.18-.3.35-.48.5-.699.63-1.63 1-2.64 1s-1.94-.37-2.64-1c-.181-.15-.341-.32-.48-.5-.55-.689-.88-1.561-.88-2.5z" fill="#ef5350"/><path d="m18.64 26c-.699.63-1.63 1-2.64 1s-1.94-.37-2.64-1c.699-.63 1.63-1 2.64-1s1.94.37 2.64 1z" fill="#ef9a9a"/><path d="m12.829 15.344c-.781-.781-2.047-.781-2.828 0-.782-.781-2.047-.781-2.829 0-.781.78-.781 2.047 0 2.828l2.828 2.828 2.828-2.828c.781-.781.781-2.048.001-2.828z" fill="#ef5350"/><path d="m19.171 15.344c.781-.781 2.047-.781 2.828 0 .782-.781 2.047-.781 2.829 0 .781.78.781 2.047 0 2.828l-2.828 2.828-2.828-2.828c-.781-.781-.781-2.048-.001-2.828z" fill="#ef5350"/><g fill="#fff"><circle cx="11.5" cy="16.5" r=".5"/><circle cx="23.5" cy="16.5" r=".5"/></g></g><g><path d="m20 22h-8c-.552 0-1 .447-1 1 0 2.757 2.243 5 5 5s5-2.243 5-5c0-.553-.448-1-1-1zm-4 4c-1.304 0-2.416-.836-2.829-2h5.657c-.412 1.164-1.524 2-2.828 2z"/><path d="m11 13c.256 0 .512-.098.707-.293l1-1c.391-.391.391-1.023 0-1.414s-1.023-.391-1.414 0l-1 1c-.391.391-.391 1.023 0 1.414.195.195.451.293.707.293z"/><path d="m16 13c.552 0 1-.447 1-1v-1c0-.553-.448-1-1-1s-1 .447-1 1v1c0 .553.448 1 1 1z"/><path d="m20.293 12.707c.195.195.451.293.707.293s.512-.098.707-.293c.391-.391.391-1.023 0-1.414l-1-1c-.391-.391-1.023-.391-1.414 0s-.391 1.023 0 1.414z"/><path d="m14.414 16.758c0-.802-.312-1.555-.878-2.121-.922-.921-2.419-1.124-3.535-.526-1.119-.6-2.615-.395-3.536.526-.566.566-.878 1.319-.878 2.121 0 .801.312 1.555.878 2.121l2.829 2.828c.195.195.451.293.706.293s.512-.098.707-.293l2.829-2.828c.566-.566.878-1.32.878-2.121zm-2.292.707-2.122 2.121-2.122-2.121c-.39-.39-.39-1.024 0-1.414.189-.188.44-.293.707-.293s.519.104.708.293c.188.188.442.293.707.293.265 0 .52-.105.707-.293.377-.379 1.036-.377 1.414 0 .189.188.292.439.292.707.001.266-.103.518-.291.707z"/><path d="m22 14.11c-1.115-.598-2.612-.395-3.535.526-.566.566-.878 1.319-.878 2.121 0 .801.312 1.555.878 2.121l2.828 2.828c.195.196.451.294.707.294s.512-.098.707-.293l2.83-2.828c1.169-1.171 1.168-3.073-.001-4.242-.922-.921-2.419-1.126-3.536-.527zm2.121 3.355-2.121 2.121-2.121-2.121c-.189-.188-.293-.44-.293-.707 0-.268.104-.519.292-.707s.44-.293.707-.293.518.104.707.293c.188.188.442.293.707.293.265 0 .52-.105.707-.293.378-.377 1.037-.377 1.415 0 .189.188.292.439.292.707.001.266-.103.518-.292.707z"/><path d="m24.069 9.327c1.5-3.485 1.167-6.744-.827-7.673-1.285-.598-2.896-.038-4.355 1.413-.716-1.288-1.728-2.067-2.887-2.067-1.14 0-2.159.752-2.887 2.068-1.46-1.453-3.071-2.017-4.355-1.414-1.998.931-2.329 4.2-.828 7.674-4.18 2.529-6.93 6.719-6.93 10.672 0 7.402 4.907 11 15 11 9.953 0 15-3.701 15-11 0-3.953-2.75-8.144-6.931-10.673zm-8.069 19.673c-11.652 0-13-5.137-13-9 0-3.435 2.754-7.29 6.697-9.376.486-.257.674-.854.421-1.342 0 0-.141-.272-.212-.435-1.288-2.77-1.04-5.036-.303-5.38.524-.242 1.648.344 2.721 1.718-.209.88-.324 1.84-.324 2.815 0 .553.448 1 1 1s1-.447 1-1c0-.977.128-1.931.37-2.759.431-1.471 1.147-2.241 1.63-2.241.815 0 2 1.948 2 5 0 .553.448 1 1 1s1-.447 1-1c0-1.017-.113-1.969-.317-2.825 1.07-1.367 2.191-1.952 2.714-1.708.737.344.984 2.61-.314 5.403-.061.139-.2.407-.202.412-.251.487-.063 1.086.421 1.342 3.944 2.086 6.698 5.941 6.698 9.376 0 3.863-1.348 9-13 9z"/></g></g></g></svg>