<svg enable-background="new 0 0 32 32" height="512" viewBox="0 0 32 32" width="512" xmlns="http://www.w3.org/2000/svg"><g id="_x32_0_medical_mask"><g><g><path d="m30 20c0 5.52-3 10-14 10-6.43 0-10.12-1.51-12.07-3.87-.15-.18-.289-.37-.42-.56-1.09-1.59-1.51-3.509-1.51-5.57 0-3.77 2.92-7.98 7.23-10.26 0 0-.16-.311-.23-.471-1.4-3.009-1.32-6.009.18-6.708.631-.301 1.42-.141 2.211.369 0 .01.01.01.02.021.689.44 1.38 1.13 2 2.01.519-1.772 1.489-2.961 2.589-2.961.09 0 .17.01.25.02.279.051.54.17.79.36.649.47 1.2 1.399 1.55 2.58 1.051-1.479 2.301-2.44 3.35-2.54.32-.029.61.01.881.141 1.49.699 1.58 3.66.209 6.649-.01.02-.02.04-.03.06-.07.16-.23.471-.23.471.94.5 1.82 1.09 2.61 1.76 1.56 1.279 2.79 2.83 3.591 4.45.67 1.339 1.029 2.719 1.029 4.049z" fill="#ffecb3"/><path d="m28 18c0 5.52-3 10-14 10-4.99 0-8.33-.91-10.49-2.43-1.09-1.59-1.51-3.509-1.51-5.57 0-3.77 2.92-7.98 7.23-10.26 0 0-.16-.311-.23-.471-1.4-3.009-1.32-6.009.18-6.708.631-.301 1.42-.141 2.211.369 0 .01.01.01.02.021.689.44 1.38 1.13 2 2.01.519-1.772 1.489-2.961 2.589-2.961.09 0 .17.01.25.02.279.051.54.17.79.36.649.47 1.2 1.399 1.55 2.58 1.051-1.479 2.301-2.44 3.35-2.54.32-.029.61.01.881.141 1.49.699 1.58 3.66.209 6.649-.01.02-.02.04-.03.06-.07.16-.23.471-.23.471.94.5 1.82 1.09 2.61 1.76.64.779 1.181 1.6 1.591 2.45.67 1.339 1.029 2.719 1.029 4.049z" fill="#fff8e1"/><ellipse cx="22.5" cy="22.5" fill="#ffcdd2" rx="1.5" ry="1"/><ellipse cx="9.5" cy="22.5" fill="#ffcdd2" rx="1.5" ry="1"/><g><path d="m24 22.04v6.79c-2.01.75-4.63 1.17-8 1.17s-5.99-.42-8-1.16v-6.8c2.24.53 4.98.96 8 .96s5.76-.43 8-.96z" fill="#80deea"/></g><path d="m24 22.04v3.84c-2.16 1.33-5.37 2.12-10 2.12-2.35 0-4.33-.2-6-.57v-5.39c2.24.53 4.98.96 8 .96s5.76-.43 8-.96z" fill="#b2ebf2"/></g><g><circle cx="10" cy="19" r="2"/><circle cx="22" cy="19" r="2"/><path d="m11 13c.256 0 .512-.098.707-.293l1-1c.391-.391.391-1.023 0-1.414s-1.023-.391-1.414 0l-1 1c-.391.391-.391 1.023 0 1.414.195.195.451.293.707.293z"/><path d="m16 13c.553 0 1-.447 1-1v-1c0-.553-.447-1-1-1s-1 .447-1 1v1c0 .553.447 1 1 1z"/><path d="m20.293 12.707c.195.195.451.293.707.293s.512-.098.707-.293c.391-.391.391-1.023 0-1.414l-1-1c-.391-.391-1.023-.391-1.414 0s-.391 1.023 0 1.414z"/><path d="m30.997 19.939c0-.001 0-.003 0-.005-.03-3.934-2.771-8.091-6.928-10.606 1.5-3.485 1.167-6.744-.827-7.675-1.284-.599-2.895-.036-4.354 1.414-.717-1.288-1.73-2.067-2.888-2.067-1.141 0-2.159.752-2.888 2.068-1.46-1.451-3.07-2.014-4.355-1.415-1.997.933-2.328 4.201-.827 7.675-4.156 2.516-6.896 6.673-6.927 10.606v.005c-.001.021-.003.041-.003.061 0 4.879 2.24 8.169 6.654 9.778 2.201.811 5.009 1.222 8.346 1.222 3.348 0 6.157-.415 8.344-1.23 4.417-1.619 6.656-4.906 6.656-9.77 0-.02-.002-.04-.003-.061zm-21.299-9.315c.484-.256.672-.854.421-1.342-.002-.004-.142-.274-.213-.435-1.288-2.77-1.041-5.037-.304-5.381.524-.244 1.649.345 2.723 1.72-.21.879-.325 1.839-.325 2.814 0 .553.447 1 1 1s1-.447 1-1c0-.977.128-1.931.37-2.759.432-1.471 1.147-2.241 1.63-2.241.815 0 2 1.948 2 5 0 .553.447 1 1 1s1-.447 1-1c0-1.017-.113-1.969-.316-2.824 1.07-1.368 2.188-1.954 2.714-1.71.737.344.984 2.611-.313 5.401-.062.141-.201.411-.203.415-.251.487-.063 1.086.421 1.342 3.704 1.959 6.357 5.479 6.667 8.745-.879.379-2.715 1.104-5.199 1.698-5.23 1.238-10.311 1.238-15.537 0-2.485-.595-4.322-1.319-5.201-1.698.308-3.266 2.961-6.786 6.665-8.745zm-6.597 10.936c.933.366 2.261.825 3.899 1.253v4.492c-2.294-1.206-3.56-3.076-3.899-5.745zm5.899 6.538v-4.829c2.355.475 4.705.731 7 .731 2.294 0 4.644-.256 7-.731v4.845c-1.873.586-4.222.886-7 .886-2.78 0-5.113-.313-7-.902zm16-.805v-4.479c1.637-.429 2.965-.889 3.898-1.254-.339 2.659-1.606 4.522-3.898 5.733z"/><g fill="#fff"><circle cx="10.5" cy="18.5" r=".5"/><circle cx="22.5" cy="18.5" r=".5"/></g></g></g></g></svg>