<svg enable-background="new 0 0 32 32" height="512" viewBox="0 0 32 32" width="512" xmlns="http://www.w3.org/2000/svg"><g id="_x31_9_sleepy"><g><g><path d="m30 20c0 5.52-3 10-14 10-6.43 0-10.12-1.51-12.07-3.87-.15-.18-.289-.37-.42-.56-1.09-1.59-1.51-3.509-1.51-5.57 0-3.77 2.92-7.98 7.23-10.26 0 0-.16-.311-.23-.471-1.4-3.009-1.32-6.009.18-6.708.631-.301 1.42-.141 2.211.369 0 .01.01.01.02.021.689.44 1.38 1.13 2 2.01.519-1.772 1.489-2.961 2.589-2.961.09 0 .17.01.25.02.279.051.54.17.79.36.649.47 1.2 1.399 1.55 2.58 1.051-1.479 2.301-2.44 3.35-2.54.32-.029.61.01.881.141 1.49.699 1.58 3.66.209 6.649-.01.02-.02.04-.03.06-.07.16-.23.471-.23.471.94.5 1.82 1.09 2.61 1.76 1.56 1.279 2.79 2.83 3.591 4.45.67 1.339 1.029 2.719 1.029 4.049z" fill="#ffecb3"/><path d="m28 18c0 5.52-3 10-14 10-4.99 0-8.33-.91-10.49-2.43-1.09-1.59-1.51-3.509-1.51-5.57 0-3.77 2.92-7.98 7.23-10.26 0 0-.16-.311-.23-.471-1.4-3.009-1.32-6.009.18-6.708.631-.301 1.42-.141 2.211.369 0 .01.01.01.02.021.689.44 1.38 1.13 2 2.01.519-1.772 1.489-2.961 2.589-2.961.09 0 .17.01.25.02.279.051.54.17.79.36.649.47 1.2 1.399 1.55 2.58 1.051-1.479 2.301-2.44 3.35-2.54.32-.029.61.01.881.141 1.49.699 1.58 3.66.209 6.649-.01.02-.02.04-.03.06-.07.16-.23.471-.23.471.94.5 1.82 1.09 2.61 1.76.64.779 1.181 1.6 1.591 2.45.67 1.339 1.029 2.719 1.029 4.049z" fill="#fff8e1"/><ellipse cx="22.5" cy="22.5" fill="#ffcdd2" rx="1.5" ry="1"/><ellipse cx="9.5" cy="22.5" fill="#ffcdd2" rx="1.5" ry="1"/><path d="m20 27h-8c0-.94.33-1.81.88-2.5.14-.18.3-.35.48-.5.699-.63 1.63-1 2.64-1s1.94.37 2.64 1c.181.15.341.32.48.5.55.69.88 1.56.88 2.5z" fill="#ef5350"/><path d="m19.46 27h-6.92c.1-.18.21-.34.34-.5.14-.18.3-.35.48-.5.699-.63 1.63-1 2.64-1s1.94.37 2.64 1c.181.15.341.32.48.5.13.16.24.32.34.5z" fill="#ef9a9a"/><path d="m26.586 26.242c.781.781 2.047.781 2.828 0s.781-2.047 0-2.828-4.242-1.414-4.242-1.414.633 3.461 1.414 4.242z" fill="#b3e5fc"/></g><g><path d="m11 13c.256 0 .512-.098.707-.293l1-1c.391-.391.391-1.023 0-1.414s-1.023-.391-1.414 0l-1 1c-.391.391-.391 1.023 0 1.414.195.195.451.293.707.293z"/><path d="m16 13c.553 0 1-.447 1-1v-1c0-.553-.447-1-1-1s-1 .447-1 1v1c0 .553.447 1 1 1z"/><path d="m20.293 12.707c.195.195.451.293.707.293s.512-.098.707-.293c.391-.391.391-1.023 0-1.414l-1-1c-.391-.391-1.023-.391-1.414 0s-.391 1.023 0 1.414z"/><path d="m13 18c0-.553-.447-1-1-1s-1 .447-1 1c0 .552-.448 1-1 1s-1-.448-1-1c0-.553-.447-1-1-1s-1 .447-1 1c0 1.654 1.346 3 3 3s3-1.346 3-3z"/><path d="m24 17c-.553 0-1 .447-1 1 0 .552-.448 1-1 1s-1-.448-1-1c0-.553-.447-1-1-1s-1 .447-1 1c0 1.654 1.346 3 3 3s3-1.346 3-3c0-.553-.447-1-1-1z"/><path d="m16 22c-2.757 0-5 2.243-5 5 0 .553.447 1 1 1h8c.553 0 1-.447 1-1 0-2.757-2.243-5-5-5zm-2.829 4c.413-1.164 1.525-2 2.829-2s2.416.836 2.829 2z"/><path d="m31 20c0-3.953-2.751-8.143-6.931-10.672 1.5-3.485 1.167-6.744-.827-7.675-1.283-.599-2.895-.036-4.354 1.414-.717-1.288-1.73-2.067-2.888-2.067-1.141 0-2.158.752-2.888 2.068-1.459-1.451-3.069-2.014-4.355-1.415-1.997.933-2.328 4.201-.827 7.675-4.179 2.529-6.93 6.719-6.93 10.672 0 7.402 4.906 11 15 11 5.431 0 9.275-1.056 11.763-3.195.079.007.157.023.237.023.801 0 1.555-.313 2.121-.879.983-.983 1.129-2.48.459-3.629.274-1.004.42-2.113.42-3.32zm-28 0c0-3.435 2.754-7.29 6.698-9.376.484-.256.672-.854.421-1.342-.002-.004-.142-.274-.213-.435-1.288-2.77-1.041-5.037-.304-5.381.523-.244 1.649.345 2.723 1.72-.21.88-.325 1.839-.325 2.814 0 .553.447 1 1 1s1-.447 1-1c0-.977.128-1.931.37-2.759.432-1.471 1.147-2.241 1.63-2.241.815 0 2 1.948 2 5 0 .553.447 1 1 1s1-.447 1-1c0-1.017-.113-1.969-.317-2.824 1.07-1.368 2.191-1.954 2.715-1.71.737.344.984 2.611-.313 5.401-.062.141-.201.411-.203.415-.251.487-.063 1.086.421 1.342 3.943 2.086 6.697 5.941 6.697 9.376 0 .699-.059 1.351-.163 1.961-1.178-.479-2.706-.802-3.485-.944-.321-.063-.654.044-.887.276s-.336.563-.276.887c.199 1.089.745 3.638 1.59 4.639-2.142 1.444-5.415 2.181-9.779 2.181-11.652 0-13-5.137-13-9zm25.707 5.535c-.379.377-1.036.376-1.413.001-.211-.222-.532-1.132-.812-2.226 1.094.279 2.003.601 2.225.811.39.39.39 1.025 0 1.414z"/></g></g></g></svg>