<svg enable-background="new 0 0 32 32" height="512" viewBox="0 0 32 32" width="512" xmlns="http://www.w3.org/2000/svg"><g id="_x31_5_sleep"><g><g><path d="m30 20c0 5.52-3 10-14 10-6.43 0-10.12-1.51-12.07-3.87-.15-.18-.289-.37-.42-.56-1.09-1.59-1.51-3.51-1.51-5.57 0-3.77 2.92-7.98 7.23-10.26 0 0-.16-.31-.23-.47-1.4-3.01-1.32-6.01.18-6.71.631-.3 1.42-.14 2.211.37 0 .01.01.01.02.02.689.44 1.38 1.13 2 2.01.519-1.77 1.489-2.96 2.589-2.96.09 0 .17.01.25.02.279.05.54.17.79.36.649.47 1.2 1.4 1.55 2.58 1.051-1.48 2.301-2.44 3.35-2.54.32-.03.61.01.881.14 1.49.7 1.58 3.66.209 6.65-.01.02-.02.04-.03.06-.07.16-.23.47-.23.47.94.5 1.82 1.09 2.61 1.76 1.56 1.28 2.79 2.83 3.591 4.45.67 1.34 1.029 2.72 1.029 4.05z" fill="#ffecb3"/><path d="m28 18c0 5.52-3 10-14 10-4.99 0-8.33-.91-10.49-2.43-1.09-1.59-1.51-3.51-1.51-5.57 0-3.77 2.92-7.98 7.23-10.26 0 0-.16-.31-.23-.47-1.4-3.01-1.32-6.01.18-6.71.631-.3 1.42-.14 2.211.37 0 .01.01.01.02.02.689.44 1.38 1.13 2 2.01.519-1.77 1.489-2.96 2.589-2.96.09 0 .17.01.25.02.279.05.54.17.79.36.649.47 1.2 1.4 1.55 2.58 1.051-1.48 2.301-2.44 3.35-2.54.32-.03.61.01.881.14 1.49.7 1.58 3.66.209 6.65-.01.02-.02.04-.03.06-.07.16-.23.47-.23.47.94.5 1.82 1.09 2.61 1.76.64.78 1.181 1.6 1.591 2.45.67 1.34 1.029 2.72 1.029 4.05z" fill="#fff8e1"/><ellipse cx="22.5" cy="22.5" fill="#ffcdd2" rx="1.5" ry="1"/><ellipse cx="9.5" cy="22.5" fill="#ffcdd2" rx="1.5" ry="1"/><path d="m19 25c0 .36-.14.69-.39.98-.51.61-1.49 1.02-2.61 1.02s-2.1-.41-2.61-1.02c-.25-.29-.39-.62-.39-.98 0-1.1 1.34-2 3-2s3 .9 3 2z" fill="#ef5350"/><path d="m18.61 25.98c-.51.61-1.49 1.02-2.61 1.02s-2.1-.41-2.61-1.02c.7-.62 1.61-.98 2.61-.98s1.91.36 2.61.98z" fill="#ef9a9a"/></g><g><path d="m9 18c0-.552-.447-1-1-1s-1 .448-1 1c0 1.654 1.346 3 3 3s3-1.346 3-3c0-.552-.447-1-1-1s-1 .448-1 1c0 .551-.448 1-1 1s-1-.449-1-1z"/><path d="m25 18c0-.552-.447-1-1-1s-1 .448-1 1c0 .551-.448 1-1 1s-1-.449-1-1c0-.552-.447-1-1-1s-1 .448-1 1c0 1.654 1.346 3 3 3s3-1.346 3-3z"/><path d="m11.707 12.707 1-1c.391-.391.391-1.023 0-1.414s-1.023-.391-1.414 0l-1 1c-.391.391-.391 1.023 0 1.414.195.195.451.293.707.293s.512-.098.707-.293z"/><path d="m17 12v-1c0-.552-.447-1-1-1s-1 .448-1 1v1c0 .552.447 1 1 1s1-.448 1-1z"/><path d="m20.293 12.707c.195.195.451.293.707.293s.512-.098.707-.293c.391-.391.391-1.023 0-1.414l-1-1c-.391-.391-1.023-.391-1.414 0s-.391 1.023 0 1.414z"/><path d="m16 28c2.243 0 4-1.318 4-3s-1.757-3-4-3-4 1.318-4 3 1.757 3 4 3zm0-4c1.221 0 2 .592 2 1s-.779 1-2 1-2-.592-2-1 .779-1 2-1z"/><path d="m24 7c0 .552.447 1 1 1h2.586l-3.293 3.293c-.286.286-.372.716-.217 1.09.154.373.52.617.924.617h5c.553 0 1-.448 1-1s-.447-1-1-1h-2.586l3.293-3.293c.286-.286.372-.716.217-1.09-.154-.373-.52-.617-.924-.617h-5c-.553 0-1 .448-1 1z"/><path d="m27.929 14.147c-.472.288-.62.903-.332 1.375.918 1.501 1.403 3.05 1.403 4.478 0 3.864-1.348 9-13 9s-13-5.136-13-9c0-3.435 2.754-7.29 6.698-9.376.484-.256.673-.855.421-1.343-.002-.004-.143-.273-.213-.433-1.288-2.77-1.041-5.038-.303-5.382.523-.247 1.649.344 2.722 1.719-.21.881-.325 1.84-.325 2.815 0 .552.447 1 1 1s1-.448 1-1c0-.976.128-1.93.37-2.758.432-1.472 1.147-2.242 1.63-2.242.815 0 2 1.948 2 5 0 .552.447 1 1 1s1-.448 1-1c0-1.017-.112-1.969-.316-2.824 1.07-1.367 2.191-1.954 2.711-1.711.29.136.437.553.498.789.141.534.688.856 1.221.714.534-.14.854-.687.715-1.221-.264-1.005-.811-1.729-1.585-2.093-1.288-.598-2.896-.037-4.355 1.414-.718-1.289-1.731-2.068-2.889-2.068-1.141 0-2.158.751-2.887 2.067-1.458-1.452-3.067-2.013-4.356-1.414-1.996.932-2.327 4.201-.827 7.675-4.18 2.53-6.93 6.719-6.93 10.672 0 7.402 4.906 11 15 11 9.953 0 15-3.701 15-11 0-1.796-.587-3.706-1.696-5.521-.287-.471-.904-.621-1.375-.332z"/></g></g></g></svg>