<svg enable-background="new 0 0 32 32" height="512" viewBox="0 0 32 32" width="512" xmlns="http://www.w3.org/2000/svg"><g id="_x30_1_smile"><g><g><path d="m30 20c0 5.52-3 10-14 10-6.43 0-10.12-1.51-12.07-3.87-.15-.18-.29-.37-.42-.56-1.09-1.59-1.51-3.51-1.51-5.57 0-3.77 2.92-7.98 7.23-10.26 0 0-.16-.31-.23-.47-1.4-3.01-1.32-6.01.18-6.71.63-.3 1.42-.14 2.21.37 0 .01.01.01.02.02.69.44 1.38 1.13 2 2.01.52-1.77 1.49-2.96 2.59-2.96.09 0 .17.01.25.02.28.05.54.17.79.36.65.47 1.2 1.4 1.55 2.58 1.05-1.48 2.3-2.44 3.35-2.54.32-.03.61.01.88.14 1.49.7 1.58 3.66.21 6.65-.01.02-.02.04-.03.06-.07.16-.23.47-.23.47.94.5 1.82 1.09 2.61 1.76 1.56 1.28 2.79 2.83 3.59 4.45.67 1.34 1.03 2.72 1.03 4.05z" fill="#ffecb3"/><path d="m28 18c0 5.52-3 10-14 10-4.99 0-8.33-.91-10.49-2.43-1.09-1.59-1.51-3.51-1.51-5.57 0-3.77 2.92-7.98 7.23-10.26 0 0-.16-.31-.23-.47-1.4-3.01-1.32-6.01.18-6.71.63-.3 1.42-.14 2.21.37 0 .01.01.01.02.02.69.44 1.38 1.13 2 2.01.52-1.77 1.49-2.96 2.59-2.96.09 0 .17.01.25.02.28.05.54.17.79.36.65.47 1.2 1.4 1.55 2.58 1.05-1.48 2.3-2.44 3.35-2.54.32-.03.61.01.88.14 1.49.7 1.58 3.66.21 6.65-.01.02-.02.04-.03.06-.07.16-.23.47-.23.47.94.5 1.82 1.09 2.61 1.76.64.78 1.18 1.6 1.59 2.45.67 1.34 1.03 2.72 1.03 4.05z" fill="#fff8e1"/><g fill="#ffcdd2"><ellipse cx="22.5" cy="22.5" rx="1.5" ry="1"/><ellipse cx="9.5" cy="22.5" rx="1.5" ry="1"/></g></g><g><circle cx="10" cy="19" r="2"/><circle cx="22" cy="19" r="2"/><path d="m19 23c-.552 0-1 .448-1 1 0 1.103-.897 2-2 2s-2-.897-2-2c0-.552-.448-1-1-1s-1 .448-1 1c0 2.206 1.794 4 4 4s4-1.794 4-4c0-.552-.448-1-1-1z"/><path d="m11 13c.256 0 .512-.098.707-.293l1-1c.391-.391.391-1.023 0-1.414s-1.023-.391-1.414 0l-1 1c-.391.391-.391 1.023 0 1.414.195.195.451.293.707.293z"/><path d="m16 13c.552 0 1-.448 1-1v-1c0-.552-.448-1-1-1s-1 .448-1 1v1c0 .552.448 1 1 1z"/><path d="m20.293 12.707c.195.195.451.293.707.293s.512-.098.707-.293c.391-.391.391-1.023 0-1.414l-1-1c-.391-.391-1.023-.391-1.414 0s-.391 1.023 0 1.414z"/><path d="m24.07 9.328c1.5-3.485 1.166-6.744-.827-7.674-1.286-.6-2.896-.038-4.355 1.414-.73-1.316-1.748-2.068-2.888-2.068s-2.158.752-2.887 2.068c-1.459-1.452-3.069-2.013-4.355-1.414-1.997.931-2.328 4.201-.828 7.674-4.18 2.529-6.93 6.719-6.93 10.672 0 7.402 4.907 11 15 11 9.953 0 15-3.701 15-11 0-3.953-2.75-8.143-6.93-10.672zm-8.07 19.672c-11.652 0-13-5.136-13-9 0-3.435 2.754-7.29 6.698-9.376.485-.257.674-.855.421-1.343 0 0-.141-.271-.212-.433-1.289-2.77-1.041-5.038-.304-5.382.524-.246 1.648.344 2.721 1.718-.209.88-.324 1.84-.324 2.816 0 .552.448 1 1 1s1-.448 1-1c0-.978.128-1.932.37-2.758.432-1.472 1.147-2.242 1.63-2.242s1.198.77 1.63 2.241c.242.827.37 1.781.37 2.759 0 .552.448 1 1 1s1-.448 1-1c0-.976-.115-1.935-.324-2.815 1.073-1.374 2.196-1.964 2.721-1.718.737.344.985 2.611-.313 5.404-.061.139-.2.406-.202.411-.251.487-.063 1.086.421 1.343 3.943 2.085 6.697 5.94 6.697 9.375 0 3.864-1.348 9-13 9z"/><g fill="#fff"><circle cx="10.5" cy="18.5" r=".5"/><circle cx="22.5" cy="18.5" r=".5"/></g></g></g></g></svg>