<svg enable-background="new 0 0 32 32" height="512" viewBox="0 0 32 32" width="512" xmlns="http://www.w3.org/2000/svg"><g id="_x30_5_tongue"><g><g><path d="m30 20c0 5.52-3 10-14 10-6.43 0-10.12-1.51-12.07-3.87-.15-.18-.289-.37-.42-.56-1.09-1.59-1.51-3.51-1.51-5.57 0-3.77 2.92-7.98 7.23-10.26 0 0-.16-.31-.23-.47-1.4-3.01-1.32-6.01.18-6.71.631-.3 1.42-.14 2.211.37 0 .01.01.01.02.02.689.44 1.38 1.13 2 2.01.519-1.77 1.489-2.96 2.589-2.96.09 0 .17.01.25.02.279.05.54.17.79.36.649.47 1.2 1.4 1.55 2.58 1.051-1.48 2.301-2.44 3.35-2.54.32-.03.61.01.881.14 1.49.7 1.58 3.66.209 6.65-.01.02-.02.04-.03.06-.07.16-.23.47-.23.47.94.5 1.82 1.09 2.61 1.76 1.56 1.28 2.79 2.83 3.591 4.45.67 1.34 1.029 2.72 1.029 4.05z" fill="#ffecb3"/><path d="m28 18c0 5.52-3 10-14 10-4.99 0-8.33-.91-10.49-2.43-1.09-1.59-1.51-3.51-1.51-5.57 0-3.77 2.92-7.98 7.23-10.26 0 0-.16-.31-.23-.47-1.4-3.01-1.32-6.01.18-6.71.631-.3 1.42-.14 2.211.37 0 .01.01.01.02.02.689.44 1.38 1.13 2 2.01.519-1.77 1.489-2.96 2.589-2.96.09 0 .17.01.25.02.279.05.54.17.79.36.649.47 1.2 1.4 1.55 2.58 1.051-1.48 2.301-2.44 3.35-2.54.32-.03.61.01.881.14 1.49.7 1.58 3.66.209 6.65-.01.02-.02.04-.03.06-.07.16-.23.47-.23.47.94.5 1.82 1.09 2.61 1.76.64.78 1.181 1.6 1.591 2.45.67 1.34 1.029 2.72 1.029 4.05z" fill="#fff8e1"/><ellipse cx="22.5" cy="22.5" fill="#ffcdd2" rx="1.5" ry="1"/><ellipse cx="9.5" cy="22.5" fill="#ffcdd2" rx="1.5" ry="1"/><path d="m17.5 24.83v1.67c0 .83-.67 1.5-1.5 1.5s-1.5-.67-1.5-1.5v-1.67z" fill="#ef9a9a"/></g><g><path d="m10 17c-1.654 0-3 1.346-3 3 0 .552.447 1 1 1s1-.448 1-1c0-.551.448-1 1-1s1 .449 1 1c0 .552.447 1 1 1s1-.448 1-1c0-1.654-1.346-3-3-3z"/><path d="m22 17c-1.654 0-3 1.346-3 3 0 .552.447 1 1 1s1-.448 1-1c0-.551.448-1 1-1s1 .449 1 1c0 .552.447 1 1 1s1-.448 1-1c0-1.654-1.346-3-3-3z"/><path d="m18.5 26.5v-.934c1.208-.457 2.105-1.248 2.446-2.242.179-.522-.1-1.091-.622-1.27-.524-.178-1.092.099-1.271.623-.219.641-1.364 1.323-3.053 1.323s-2.834-.682-3.054-1.324c-.18-.523-.748-.801-1.271-.623-.522.179-.801.748-.622 1.27.341.995 1.238 1.785 2.446 2.242v.935c0 1.378 1.121 2.5 2.5 2.5s2.501-1.122 2.501-2.5zm-2.5.5c-.275 0-.5-.224-.5-.5v-.528c.166.01.329.028.5.028s.334-.018.5-.028v.528c0 .276-.225.5-.5.5z"/><path d="m11.293 10.293-1 1c-.391.391-.391 1.023 0 1.414.195.195.451.293.707.293s.512-.098.707-.293l1-1c.391-.391.391-1.023 0-1.414s-1.023-.391-1.414 0z"/><path d="m16 10c-.553 0-1 .448-1 1v1c0 .552.447 1 1 1s1-.448 1-1v-1c0-.552-.447-1-1-1z"/><path d="m20.293 12.707c.195.195.451.293.707.293s.512-.098.707-.293c.391-.391.391-1.023 0-1.414l-1-1c-.391-.391-1.023-.391-1.414 0s-.391 1.023 0 1.414z"/><path d="m24.069 9.328c1.5-3.485 1.167-6.744-.826-7.674-1.287-.599-2.896-.039-4.355 1.413-.717-1.288-1.73-2.067-2.888-2.067-1.141 0-2.158.751-2.887 2.067-1.458-1.451-3.067-2.013-4.356-1.414-1.996.932-2.327 4.201-.827 7.675-4.18 2.53-6.93 6.719-6.93 10.672 0 7.402 4.906 11 15 11 9.953 0 15-3.701 15-11 0-3.953-2.751-8.143-6.931-10.672zm-8.069 19.672c-11.652 0-13-5.136-13-9 0-3.435 2.754-7.29 6.698-9.376.484-.256.673-.855.421-1.343-.002-.004-.143-.273-.213-.433-1.288-2.77-1.041-5.038-.303-5.382.523-.246 1.649.344 2.722 1.719-.21.881-.325 1.84-.325 2.815 0 .552.447 1 1 1s1-.448 1-1c0-.976.128-1.93.37-2.758.432-1.472 1.147-2.242 1.63-2.242.815 0 2 1.948 2 5 0 .552.447 1 1 1s1-.448 1-1c0-1.017-.113-1.969-.317-2.825 1.069-1.368 2.189-1.955 2.715-1.709.737.344.984 2.611-.313 5.402-.061.14-.201.409-.203.413-.252.487-.063 1.086.421 1.343 3.943 2.086 6.697 5.941 6.697 9.376 0 3.864-1.348 9-13 9z"/></g></g></g></svg>